999
Generated by Autodesk CAM - http://cam.autodesk.com
0
SECTION
2
HEADER
9
$ACADVER
1
AC1006
9
$ANGBASE
50
0
9
$ANGDIR
70
0
0
ENDSEC
0
SECTION
2
BLOCKS
0
ENDSEC
9
$EXTMIN
10
-336
20
-2.4
30
0
9
$EXTMAX
10
336
20
453.7
30
15
0
SECTION
2
ENTITIES
0
LINE
8
1
62
3
10
-107.168
20
398.914
30
15
11
-107.168
21
398.914
31
15
0
LINE
8
1
62
3
10
-107.168
20
398.914
30
15
11
-107.168
21
398.914
31
0
0
LINE
8
1
62
2
10
-107.168
20
398.914
30
0
11
-107.168
21
398.914
31
0
0
LINE
8
1
62
1
10
-107.168
20
398.914
30
0
11
-107.167
21
398.914
31
0
0
LINE
8
1
62
1
10
-107.167
20
398.914
30
0
11
-107.167
21
423.407
31
0
0
LINE
8
1
62
1
10
-107.167
20
423.407
30
0
11
-112.967
21
423.407
31
0
0
LINE
8
1
62
1
10
-112.967
20
423.407
30
0
11
-112.967
21
398.914
31
0
0
LINE
8
1
62
1
10
-112.967
20
398.914
30
0
11
-107.168
21
398.914
31
0
0
LINE
8
1
62
2
10
-107.168
20
398.914
30
0
11
-107.167
21
398.914
31
0
0
LINE
8
1
62
3
10
-107.167
20
398.914
30
0
11
-107.167
21
398.914
31
5
0
LINE
8
1
62
3
10
-107.167
20
398.914
30
5
11
-107.168
21
349.929
31
5
0
LINE
8
1
62
3
10
-107.168
20
349.929
30
5
11
-107.168
21
349.929
31
0
0
LINE
8
1
62
2
10
-107.168
20
349.929
30
0
11
-107.168
21
349.929
31
0
0
LINE
8
1
62
1
10
-107.168
20
349.929
30
0
11
-107.167
21
349.929
31
0
0
LINE
8
1
62
1
10
-107.167
20
349.929
30
0
11
-107.167
21
374.421
31
0
0
LINE
8
1
62
1
10
-107.167
20
374.421
30
0
11
-112.967
21
374.421
31
0
0
LINE
8
1
62
1
10
-112.967
20
374.421
30
0
11
-112.967
21
349.929
31
0
0
LINE
8
1
62
1
10
-112.967
20
349.929
30
0
11
-107.168
21
349.929
31
0
0
LINE
8
1
62
2
10
-107.168
20
349.929
30
0
11
-107.167
21
349.929
31
0
0
LINE
8
1
62
3
10
-107.167
20
349.929
30
0
11
-107.167
21
349.929
31
5
0
LINE
8
1
62
3
10
-107.167
20
349.929
30
5
11
-107.168
21
300.943
31
5
0
LINE
8
1
62
3
10
-107.168
20
300.943
30
5
11
-107.168
21
300.943
31
0
0
LINE
8
1
62
2
10
-107.168
20
300.943
30
0
11
-107.168
21
300.943
31
0
0
LINE
8
1
62
1
10
-107.168
20
300.943
30
0
11
-107.167
21
300.943
31
0
0
LINE
8
1
62
1
10
-107.167
20
300.943
30
0
11
-107.167
21
325.436
31
0
0
LINE
8
1
62
1
10
-107.167
20
325.436
30
0
11
-112.967
21
325.436
31
0
0
LINE
8
1
62
1
10
-112.967
20
325.436
30
0
11
-112.967
21
300.943
31
0
0
LINE
8
1
62
1
10
-112.967
20
300.943
30
0
11
-107.168
21
300.943
31
0
0
LINE
8
1
62
2
10
-107.168
20
300.943
30
0
11
-107.167
21
300.943
31
0
0
LINE
8
1
62
3
10
-107.167
20
300.943
30
0
11
-107.167
21
300.943
31
5
0
LINE
8
1
62
3
10
-107.167
20
300.943
30
5
11
-107.168
21
125.864
31
5
0
LINE
8
1
62
3
10
-107.168
20
125.864
30
5
11
-107.168
21
125.864
31
0
0
LINE
8
1
62
2
10
-107.168
20
125.864
30
0
11
-107.168
21
125.864
31
0
0
LINE
8
1
62
1
10
-107.168
20
125.864
30
0
11
-107.167
21
125.864
31
0
0
LINE
8
1
62
1
10
-107.167
20
125.864
30
0
11
-107.167
21
150.357
31
0
0
LINE
8
1
62
1
10
-107.167
20
150.357
30
0
11
-112.967
21
150.357
31
0
0
LINE
8
1
62
1
10
-112.967
20
150.357
30
0
11
-112.967
21
125.864
31
0
0
LINE
8
1
62
1
10
-112.967
20
125.864
30
0
11
-107.168
21
125.864
31
0
0
LINE
8
1
62
2
10
-107.168
20
125.864
30
0
11
-107.167
21
125.864
31
0
0
LINE
8
1
62
3
10
-107.167
20
125.864
30
0
11
-107.167
21
125.864
31
5
0
LINE
8
1
62
3
10
-107.167
20
125.864
30
5
11
-107.168
21
76.879
31
5
0
LINE
8
1
62
3
10
-107.168
20
76.879
30
5
11
-107.168
21
76.879
31
0
0
LINE
8
1
62
2
10
-107.168
20
76.879
30
0
11
-107.168
21
76.879
31
0
0
LINE
8
1
62
1
10
-107.168
20
76.879
30
0
11
-107.167
21
76.879
31
0
0
LINE
8
1
62
1
10
-107.167
20
76.879
30
0
11
-107.167
21
101.371
31
0
0
LINE
8
1
62
1
10
-107.167
20
101.371
30
0
11
-112.967
21
101.371
31
0
0
LINE
8
1
62
1
10
-112.967
20
101.371
30
0
11
-112.967
21
76.879
31
0
0
LINE
8
1
62
1
10
-112.967
20
76.879
30
0
11
-107.168
21
76.879
31
0
0
LINE
8
1
62
2
10
-107.168
20
76.879
30
0
11
-107.167
21
76.879
31
0
0
LINE
8
1
62
3
10
-107.167
20
76.879
30
0
11
-107.167
21
76.879
31
5
0
LINE
8
1
62
3
10
-107.167
20
76.879
30
5
11
-107.167
21
52.385
31
5
0
LINE
8
1
62
3
10
-107.167
20
52.385
30
5
11
-107.167
21
52.385
31
0
0
LINE
8
1
62
2
10
-107.167
20
52.385
30
0
11
-107.167
21
52.385
31
0
0
LINE
8
1
62
1
10
-107.167
20
52.385
30
0
11
-107.167
21
52.386
31
0
0
LINE
8
1
62
1
10
-107.167
20
52.386
30
0
11
-112.967
21
52.386
31
0
0
LINE
8
1
62
1
10
-112.967
20
52.386
30
0
11
-112.967
21
27.893
31
0
0
LINE
8
1
62
1
10
-112.967
20
27.893
30
0
11
-107.167
21
27.893
31
0
0
LINE
8
1
62
1
10
-107.167
20
27.893
30
0
11
-107.167
21
52.385
31
0
0
LINE
8
1
62
2
10
-107.167
20
52.385
30
0
11
-107.167
21
52.385
31
0
0
LINE
8
1
62
3
10
-107.167
20
52.385
30
0
11
-107.167
21
52.385
31
5
0
LINE
8
1
62
3
10
-107.167
20
52.385
30
5
11
107.168
21
52.385
31
5
0
LINE
8
1
62
3
10
107.168
20
52.385
30
5
11
107.168
21
52.385
31
0
0
LINE
8
1
62
2
10
107.168
20
52.385
30
0
11
107.168
21
52.386
31
0
0
LINE
8
1
62
1
10
107.168
20
52.386
30
0
11
107.167
21
52.386
31
0
0
LINE
8
1
62
1
10
107.167
20
52.386
30
0
11
107.167
21
27.893
31
0
0
LINE
8
1
62
1
10
107.167
20
27.893
30
0
11
112.967
21
27.893
31
0
0
LINE
8
1
62
1
10
112.967
20
27.893
30
0
11
112.967
21
52.386
31
0
0
LINE
8
1
62
1
10
112.967
20
52.386
30
0
11
107.168
21
52.386
31
0
0
LINE
8
1
62
2
10
107.168
20
52.386
30
0
11
107.167
21
52.385
31
0
0
LINE
8
1
62
3
10
107.167
20
52.385
30
0
11
107.167
21
52.385
31
5
0
LINE
8
1
62
3
10
107.167
20
52.385
30
5
11
107.168
21
101.371
31
5
0
LINE
8
1
62
3
10
107.168
20
101.371
30
5
11
107.168
21
101.371
31
0
0
LINE
8
1
62
2
10
107.168
20
101.371
30
0
11
107.168
21
101.371
31
0
0
LINE
8
1
62
1
10
107.168
20
101.371
30
0
11
107.167
21
101.371
31
0
0
LINE
8
1
62
1
10
107.167
20
101.371
30
0
11
107.167
21
76.879
31
0
0
LINE
8
1
62
1
10
107.167
20
76.879
30
0
11
112.967
21
76.879
31
0
0
LINE
8
1
62
1
10
112.967
20
76.879
30
0
11
112.967
21
101.371
31
0
0
LINE
8
1
62
1
10
112.967
20
101.371
30
0
11
107.168
21
101.371
31
0
0
LINE
8
1
62
2
10
107.168
20
101.371
30
0
11
107.167
21
101.371
31
0
0
LINE
8
1
62
3
10
107.167
20
101.371
30
0
11
107.167
21
101.371
31
5
0
LINE
8
1
62
3
10
107.167
20
101.371
30
5
11
107.168
21
150.357
31
5
0
LINE
8
1
62
3
10
107.168
20
150.357
30
5
11
107.168
21
150.357
31
0
0
LINE
8
1
62
2
10
107.168
20
150.357
30
0
11
107.168
21
150.357
31
0
0
LINE
8
1
62
1
10
107.168
20
150.357
30
0
11
107.167
21
150.357
31
0
0
LINE
8
1
62
1
10
107.167
20
150.357
30
0
11
107.167
21
125.864
31
0
0
LINE
8
1
62
1
10
107.167
20
125.864
30
0
11
112.967
21
125.864
31
0
0
LINE
8
1
62
1
10
112.967
20
125.864
30
0
11
112.967
21
150.357
31
0
0
LINE
8
1
62
1
10
112.967
20
150.357
30
0
11
107.168
21
150.357
31
0
0
LINE
8
1
62
2
10
107.168
20
150.357
30
0
11
107.167
21
150.357
31
0
0
LINE
8
1
62
3
10
107.167
20
150.357
30
0
11
107.167
21
150.357
31
5
0
LINE
8
1
62
3
10
107.167
20
150.357
30
5
11
107.168
21
325.436
31
5
0
LINE
8
1
62
3
10
107.168
20
325.436
30
5
11
107.168
21
325.436
31
0
0
LINE
8
1
62
2
10
107.168
20
325.436
30
0
11
107.168
21
325.436
31
0
0
LINE
8
1
62
1
10
107.168
20
325.436
30
0
11
107.167
21
325.436
31
0
0
LINE
8
1
62
1
10
107.167
20
325.436
30
0
11
107.167
21
300.943
31
0
0
LINE
8
1
62
1
10
107.167
20
300.943
30
0
11
112.967
21
300.943
31
0
0
LINE
8
1
62
1
10
112.967
20
300.943
30
0
11
112.967
21
325.436
31
0
0
LINE
8
1
62
1
10
112.967
20
325.436
30
0
11
107.168
21
325.436
31
0
0
LINE
8
1
62
2
10
107.168
20
325.436
30
0
11
107.167
21
325.436
31
0
0
LINE
8
1
62
3
10
107.167
20
325.436
30
0
11
107.167
21
325.436
31
5
0
LINE
8
1
62
3
10
107.167
20
325.436
30
5
11
107.168
21
374.421
31
5
0
LINE
8
1
62
3
10
107.168
20
374.421
30
5
11
107.168
21
374.421
31
0
0
LINE
8
1
62
2
10
107.168
20
374.421
30
0
11
107.168
21
374.421
31
0
0
LINE
8
1
62
1
10
107.168
20
374.421
30
0
11
107.167
21
374.421
31
0
0
LINE
8
1
62
1
10
107.167
20
374.421
30
0
11
107.167
21
349.929
31
0
0
LINE
8
1
62
1
10
107.167
20
349.929
30
0
11
112.967
21
349.929
31
0
0
LINE
8
1
62
1
10
112.967
20
349.929
30
0
11
112.967
21
374.421
31
0
0
LINE
8
1
62
1
10
112.967
20
374.421
30
0
11
107.168
21
374.421
31
0
0
LINE
8
1
62
2
10
107.168
20
374.421
30
0
11
107.167
21
374.421
31
0
0
LINE
8
1
62
3
10
107.167
20
374.421
30
0
11
107.167
21
374.421
31
5
0
LINE
8
1
62
3
10
107.167
20
374.421
30
5
11
107.167
21
398.915
31
5
0
LINE
8
1
62
3
10
107.167
20
398.915
30
5
11
107.167
21
398.915
31
0
0
LINE
8
1
62
2
10
107.167
20
398.915
30
0
11
107.167
21
398.915
31
0
0
LINE
8
1
62
1
10
107.167
20
398.915
30
0
11
107.167
21
398.914
31
0
0
LINE
8
1
62
1
10
107.167
20
398.914
30
0
11
107.167
21
398.914
31
0
0
LINE
8
1
62
1
10
107.167
20
398.914
30
0
11
112.967
21
398.914
31
0
0
LINE
8
1
62
1
10
112.967
20
398.914
30
0
11
112.967
21
423.407
31
0
0
LINE
8
1
62
1
10
112.967
20
423.407
30
0
11
107.167
21
423.407
31
0
0
LINE
8
1
62
1
10
107.167
20
423.407
30
0
11
107.167
21
398.915
31
0
0
LINE
8
1
62
2
10
107.167
20
398.915
30
0
11
107.167
21
398.914
31
0
0
LINE
8
1
62
3
10
107.167
20
398.914
30
0
11
107.167
21
398.914
31
5
0
LINE
8
1
62
3
10
107.167
20
398.914
30
5
11
100.495
21
447.9
31
5
0
LINE
8
1
62
3
10
100.495
20
447.9
30
5
11
100.495
21
447.9
31
0
0
LINE
8
1
62
2
10
100.495
20
447.9
30
0
11
100.496
21
447.9
31
0
0
LINE
8
1
62
1
10
100.496
20
447.9
30
0
11
100.496
21
447.9
31
0
0
LINE
8
1
62
1
10
100.496
20
447.9
30
0
11
100.496
21
453.7
31
0
0
LINE
8
1
62
1
10
100.496
20
453.7
30
0
11
129.209
21
453.7
31
0
0
LINE
8
1
62
1
10
129.209
20
453.7
30
0
11
129.209
21
447.9
31
0
0
LINE
8
1
62
1
10
129.209
20
447.9
30
0
11
157.922
21
447.9
31
0
0
LINE
8
1
62
1
10
157.922
20
447.9
30
0
11
157.922
21
453.7
31
0
0
LINE
8
1
62
1
10
157.922
20
453.7
30
0
11
186.635
21
453.7
31
0
0
LINE
8
1
62
1
10
186.635
20
453.7
30
0
11
186.635
21
447.9
31
0
0
LINE
8
1
62
1
10
186.635
20
447.9
30
0
11
215.348
21
447.9
31
0
0
LINE
8
1
62
1
10
215.348
20
447.9
30
0
11
215.348
21
453.7
31
0
0
LINE
8
1
62
1
10
215.348
20
453.7
30
0
11
244.061
21
453.7
31
0
0
LINE
8
1
62
1
10
244.061
20
453.7
30
0
11
244.061
21
447.9
31
0
0
LINE
8
1
62
1
10
244.061
20
447.9
30
0
11
272.774
21
447.9
31
0
0
LINE
8
1
62
1
10
272.774
20
447.9
30
0
11
272.774
21
453.7
31
0
0
LINE
8
1
62
1
10
272.774
20
453.7
30
0
11
301.487
21
453.7
31
0
0
LINE
8
1
62
1
10
301.487
20
453.7
30
0
11
301.487
21
447.9
31
0
0
LINE
8
1
62
1
10
301.487
20
447.9
30
0
11
330.2
21
447.9
31
0
0
LINE
8
1
62
1
10
330.2
20
447.9
30
0
11
330.2
21
418.267
31
0
0
LINE
8
1
62
1
10
330.2
20
418.267
30
0
11
336
21
418.267
31
0
0
LINE
8
1
62
1
10
336
20
418.267
30
0
11
336
21
388.633
31
0
0
LINE
8
1
62
1
10
336
20
388.633
30
0
11
330.2
21
388.633
31
0
0
LINE
8
1
62
1
10
330.2
20
388.633
30
0
11
330.2
21
359
31
0
0
LINE
8
1
62
1
10
330.2
20
359
30
0
11
336
21
359
31
0
0
LINE
8
1
62
1
10
336
20
359
30
0
11
336
21
329.367
31
0
0
LINE
8
1
62
1
10
336
20
329.367
30
0
11
330.2
21
329.367
31
0
0
LINE
8
1
62
1
10
330.2
20
329.367
30
0
11
330.2
21
299.733
31
0
0
LINE
8
1
62
1
10
330.2
20
299.733
30
0
11
336
21
299.733
31
0
0
LINE
8
1
62
1
10
336
20
299.733
30
0
11
336
21
270.1
31
0
0
LINE
8
1
62
1
10
336
20
270.1
30
0
11
330.2
21
270.1
31
0
0
LINE
8
1
62
1
10
330.2
20
270.1
30
0
11
330.2
21
240.467
31
0
0
LINE
8
1
62
1
10
330.2
20
240.467
30
0
11
336
21
240.467
31
0
0
LINE
8
1
62
1
10
336
20
240.467
30
0
11
336
21
210.833
31
0
0
LINE
8
1
62
1
10
336
20
210.833
30
0
11
330.2
21
210.833
31
0
0
LINE
8
1
62
1
10
330.2
20
210.833
30
0
11
330.2
21
181.2
31
0
0
LINE
8
1
62
1
10
330.2
20
181.2
30
0
11
336
21
181.2
31
0
0
LINE
8
1
62
1
10
336
20
181.2
30
0
11
336
21
151.567
31
0
0
LINE
8
1
62
1
10
336
20
151.567
30
0
11
330.2
21
151.567
31
0
0
LINE
8
1
62
1
10
330.2
20
151.567
30
0
11
330.2
21
121.933
31
0
0
LINE
8
1
62
1
10
330.2
20
121.933
30
0
11
336
21
121.933
31
0
0
LINE
8
1
62
1
10
336
20
121.933
30
0
11
336
21
92.3
31
0
0
LINE
8
1
62
1
10
336
20
92.3
30
0
11
330.2
21
92.3
31
0
0
LINE
8
1
62
1
10
330.2
20
92.3
30
0
11
330.2
21
62.667
31
0
0
LINE
8
1
62
1
10
330.2
20
62.667
30
0
11
336
21
62.667
31
0
0
LINE
8
1
62
1
10
336
20
62.667
30
0
11
336
21
33.033
31
0
0
LINE
8
1
62
1
10
336
20
33.033
30
0
11
330.2
21
33.033
31
0
0
LINE
8
1
62
1
10
330.2
20
33.033
30
0
11
330.2
21
3.4
31
0
0
LINE
8
1
62
1
10
330.2
20
3.4
30
0
11
301.487
21
3.4
31
0
0
LINE
8
1
62
1
10
301.487
20
3.4
30
0
11
301.487
21
-2.4
31
0
0
LINE
8
1
62
1
10
301.487
20
-2.4
30
0
11
272.774
21
-2.4
31
0
0
LINE
8
1
62
1
10
272.774
20
-2.4
30
0
11
272.774
21
3.4
31
0
0
LINE
8
1
62
1
10
272.774
20
3.4
30
0
11
244.061
21
3.4
31
0
0
LINE
8
1
62
1
10
244.061
20
3.4
30
0
11
244.061
21
-2.4
31
0
0
LINE
8
1
62
1
10
244.061
20
-2.4
30
0
11
215.348
21
-2.4
31
0
0
LINE
8
1
62
1
10
215.348
20
-2.4
30
0
11
215.348
21
3.4
31
0
0
LINE
8
1
62
1
10
215.348
20
3.4
30
0
11
186.635
21
3.4
31
0
0
LINE
8
1
62
1
10
186.635
20
3.4
30
0
11
186.635
21
-2.4
31
0
0
LINE
8
1
62
1
10
186.635
20
-2.4
30
0
11
157.922
21
-2.4
31
0
0
LINE
8
1
62
1
10
157.922
20
-2.4
30
0
11
157.922
21
3.4
31
0
0
LINE
8
1
62
1
10
157.922
20
3.4
30
0
11
129.209
21
3.4
31
0
0
LINE
8
1
62
1
10
129.209
20
3.4
30
0
11
129.209
21
-2.4
31
0
0
LINE
8
1
62
1
10
129.209
20
-2.4
30
0
11
100.496
21
-2.4
31
0
0
LINE
8
1
62
1
10
100.496
20
-2.4
30
0
11
100.496
21
3.4
31
0
0
LINE
8
1
62
1
10
100.496
20
3.4
30
0
11
71.783
21
3.4
31
0
0
LINE
8
1
62
1
10
71.783
20
3.4
30
0
11
71.783
21
-2.4
31
0
0
LINE
8
1
62
1
10
71.783
20
-2.4
30
0
11
43.07
21
-2.4
31
0
0
LINE
8
1
62
1
10
43.07
20
-2.4
30
0
11
43.07
21
3.4
31
0
0
LINE
8
1
62
1
10
43.07
20
3.4
30
0
11
14.357
21
3.4
31
0
0
LINE
8
1
62
1
10
14.357
20
3.4
30
0
11
14.357
21
-2.4
31
0
0
LINE
8
1
62
1
10
14.357
20
-2.4
30
0
11
-14.356
21
-2.4
31
0
0
LINE
8
1
62
1
10
-14.356
20
-2.4
30
0
11
-14.357
21
3.4
31
0
0
LINE
8
1
62
1
10
-14.357
20
3.4
30
0
11
-43.07
21
3.4
31
0
0
LINE
8
1
62
1
10
-43.07
20
3.4
30
0
11
-43.07
21
-2.4
31
0
0
LINE
8
1
62
1
10
-43.07
20
-2.4
30
0
11
-71.783
21
-2.4
31
0
0
LINE
8
1
62
1
10
-71.783
20
-2.4
30
0
11
-71.783
21
3.4
31
0
0
LINE
8
1
62
1
10
-71.783
20
3.4
30
0
11
-100.496
21
3.4
31
0
0
LINE
8
1
62
1
10
-100.496
20
3.4
30
0
11
-100.496
21
-2.4
31
0
0
LINE
8
1
62
1
10
-100.496
20
-2.4
30
0
11
-129.209
21
-2.4
31
0
0
LINE
8
1
62
1
10
-129.209
20
-2.4
30
0
11
-129.209
21
3.4
31
0
0
LINE
8
1
62
1
10
-129.209
20
3.4
30
0
11
-157.922
21
3.4
31
0
0
LINE
8
1
62
1
10
-157.922
20
3.4
30
0
11
-157.922
21
-2.4
31
0
0
LINE
8
1
62
1
10
-157.922
20
-2.4
30
0
11
-186.635
21
-2.4
31
0
0
LINE
8
1
62
1
10
-186.635
20
-2.4
30
0
11
-186.635
21
3.4
31
0
0
LINE
8
1
62
1
10
-186.635
20
3.4
30
0
11
-215.348
21
3.4
31
0
0
LINE
8
1
62
1
10
-215.348
20
3.4
30
0
11
-215.348
21
-2.4
31
0
0
LINE
8
1
62
1
10
-215.348
20
-2.4
30
0
11
-244.061
21
-2.4
31
0
0
LINE
8
1
62
1
10
-244.061
20
-2.4
30
0
11
-244.061
21
3.4
31
0
0
LINE
8
1
62
1
10
-244.061
20
3.4
30
0
11
-272.774
21
3.4
31
0
0
LINE
8
1
62
1
10
-272.774
20
3.4
30
0
11
-272.774
21
-2.4
31
0
0
LINE
8
1
62
1
10
-272.774
20
-2.4
30
0
11
-301.487
21
-2.4
31
0
0
LINE
8
1
62
1
10
-301.487
20
-2.4
30
0
11
-301.487
21
3.4
31
0
0
LINE
8
1
62
1
10
-301.487
20
3.4
30
0
11
-330.2
21
3.4
31
0
0
LINE
8
1
62
1
10
-330.2
20
3.4
30
0
11
-330.2
21
33.033
31
0
0
LINE
8
1
62
1
10
-330.2
20
33.033
30
0
11
-336
21
33.033
31
0
0
LINE
8
1
62
1
10
-336
20
33.033
30
0
11
-336
21
62.667
31
0
0
LINE
8
1
62
1
10
-336
20
62.667
30
0
11
-330.2
21
62.667
31
0
0
LINE
8
1
62
1
10
-330.2
20
62.667
30
0
11
-330.2
21
92.3
31
0
0
LINE
8
1
62
1
10
-330.2
20
92.3
30
0
11
-336
21
92.3
31
0
0
LINE
8
1
62
1
10
-336
20
92.3
30
0
11
-336
21
121.933
31
0
0
LINE
8
1
62
1
10
-336
20
121.933
30
0
11
-330.2
21
121.933
31
0
0
LINE
8
1
62
1
10
-330.2
20
121.933
30
0
11
-330.2
21
151.567
31
0
0
LINE
8
1
62
1
10
-330.2
20
151.567
30
0
11
-336
21
151.567
31
0
0
LINE
8
1
62
1
10
-336
20
151.567
30
0
11
-336
21
181.2
31
0
0
LINE
8
1
62
1
10
-336
20
181.2
30
0
11
-330.2
21
181.2
31
0
0
LINE
8
1
62
1
10
-330.2
20
181.2
30
0
11
-330.2
21
210.833
31
0
0
LINE
8
1
62
1
10
-330.2
20
210.833
30
0
11
-336
21
210.833
31
0
0
LINE
8
1
62
1
10
-336
20
210.833
30
0
11
-336
21
240.467
31
0
0
LINE
8
1
62
1
10
-336
20
240.467
30
0
11
-330.2
21
240.467
31
0
0
LINE
8
1
62
1
10
-330.2
20
240.467
30
0
11
-330.2
21
270.1
31
0
0
LINE
8
1
62
1
10
-330.2
20
270.1
30
0
11
-336
21
270.1
31
0
0
LINE
8
1
62
1
10
-336
20
270.1
30
0
11
-336
21
299.733
31
0
0
LINE
8
1
62
1
10
-336
20
299.733
30
0
11
-330.2
21
299.733
31
0
0
LINE
8
1
62
1
10
-330.2
20
299.733
30
0
11
-330.2
21
329.367
31
0
0
LINE
8
1
62
1
10
-330.2
20
329.367
30
0
11
-336
21
329.367
31
0
0
LINE
8
1
62
1
10
-336
20
329.367
30
0
11
-336
21
359
31
0
0
LINE
8
1
62
1
10
-336
20
359
30
0
11
-330.2
21
359
31
0
0
LINE
8
1
62
1
10
-330.2
20
359
30
0
11
-330.2
21
388.633
31
0
0
LINE
8
1
62
1
10
-330.2
20
388.633
30
0
11
-336
21
388.633
31
0
0
LINE
8
1
62
1
10
-336
20
388.633
30
0
11
-336
21
418.267
31
0
0
LINE
8
1
62
1
10
-336
20
418.267
30
0
11
-330.2
21
418.267
31
0
0
LINE
8
1
62
1
10
-330.2
20
418.267
30
0
11
-330.2
21
447.9
31
0
0
LINE
8
1
62
1
10
-330.2
20
447.9
30
0
11
-301.487
21
447.9
31
0
0
LINE
8
1
62
1
10
-301.487
20
447.9
30
0
11
-301.487
21
453.7
31
0
0
LINE
8
1
62
1
10
-301.487
20
453.7
30
0
11
-272.774
21
453.7
31
0
0
LINE
8
1
62
1
10
-272.774
20
453.7
30
0
11
-272.774
21
447.9
31
0
0
LINE
8
1
62
1
10
-272.774
20
447.9
30
0
11
-244.061
21
447.9
31
0
0
LINE
8
1
62
1
10
-244.061
20
447.9
30
0
11
-244.061
21
453.7
31
0
0
LINE
8
1
62
1
10
-244.061
20
453.7
30
0
11
-215.348
21
453.7
31
0
0
LINE
8
1
62
1
10
-215.348
20
453.7
30
0
11
-215.348
21
447.9
31
0
0
LINE
8
1
62
1
10
-215.348
20
447.9
30
0
11
-186.635
21
447.9
31
0
0
LINE
8
1
62
1
10
-186.635
20
447.9
30
0
11
-186.635
21
453.7
31
0
0
LINE
8
1
62
1
10
-186.635
20
453.7
30
0
11
-157.922
21
453.7
31
0
0
LINE
8
1
62
1
10
-157.922
20
453.7
30
0
11
-157.922
21
447.9
31
0
0
LINE
8
1
62
1
10
-157.922
20
447.9
30
0
11
-129.209
21
447.9
31
0
0
LINE
8
1
62
1
10
-129.209
20
447.9
30
0
11
-129.209
21
453.7
31
0
0
LINE
8
1
62
1
10
-129.209
20
453.7
30
0
11
-100.496
21
453.7
31
0
0
LINE
8
1
62
1
10
-100.496
20
453.7
30
0
11
-100.496
21
447.9
31
0
0
LINE
8
1
62
1
10
-100.496
20
447.9
30
0
11
-71.783
21
447.9
31
0
0
LINE
8
1
62
1
10
-71.783
20
447.9
30
0
11
-71.783
21
453.7
31
0
0
LINE
8
1
62
1
10
-71.783
20
453.7
30
0
11
-43.07
21
453.7
31
0
0
LINE
8
1
62
1
10
-43.07
20
453.7
30
0
11
-43.07
21
447.9
31
0
0
LINE
8
1
62
1
10
-43.07
20
447.9
30
0
11
-14.357
21
447.9
31
0
0
LINE
8
1
62
1
10
-14.357
20
447.9
30
0
11
-14.357
21
453.7
31
0
0
LINE
8
1
62
1
10
-14.357
20
453.7
30
0
11
14.356
21
453.7
31
0
0
LINE
8
1
62
1
10
14.356
20
453.7
30
0
11
14.357
21
447.9
31
0
0
LINE
8
1
62
1
10
14.357
20
447.9
30
0
11
43.07
21
447.9
31
0
0
LINE
8
1
62
1
10
43.07
20
447.9
30
0
11
43.07
21
453.7
31
0
0
LINE
8
1
62
1
10
43.07
20
453.7
30
0
11
71.783
21
453.7
31
0
0
LINE
8
1
62
1
10
71.783
20
453.7
30
0
11
71.783
21
447.9
31
0
0
LINE
8
1
62
1
10
71.783
20
447.9
30
0
11
100.496
21
447.9
31
0
0
LINE
8
1
62
2
10
100.496
20
447.9
30
0
11
100.496
21
447.9
31
0
0
LINE
8
1
62
3
10
100.496
20
447.9
30
0
11
100.496
21
447.9
31
15
0
ENDSEC
0
EOF
