999
Generated by Autodesk CAM - http://cam.autodesk.com
0
SECTION
2
HEADER
9
$ACADVER
1
AC1006
9
$ANGBASE
50
0
9
$ANGDIR
70
0
0
ENDSEC
0
SECTION
2
BLOCKS
0
ENDSEC
9
$EXTMIN
10
-5.8
20
-155.3
30
0
9
$EXTMAX
10
171.45
20
155.3
30
352
0
SECTION
2
ENTITIES
0
LINE
8
1
62
3
10
73.478
20
-149.501
30
352
11
73.478
21
-149.501
31
352
0
LINE
8
1
62
3
10
73.478
20
-149.501
30
352
11
73.478
21
-149.501
31
337
0
LINE
8
1
62
2
10
73.478
20
-149.501
30
337
11
73.479
21
-149.5
31
337
0
LINE
8
1
62
1
10
73.479
20
-149.5
30
337
11
73.479
21
-149.5
31
337
0
LINE
8
1
62
1
10
73.479
20
-149.5
30
337
11
48.986
21
-149.5
31
337
0
LINE
8
1
62
1
10
48.986
20
-149.5
30
337
11
48.986
21
-155.3
31
337
0
LINE
8
1
62
1
10
48.986
20
-155.3
30
337
11
24.493
21
-155.3
31
337
0
LINE
8
1
62
1
10
24.493
20
-155.3
30
337
11
24.493
21
-149.5
31
337
0
LINE
8
1
62
1
10
24.493
20
-149.5
30
337
11
0
21
-149.5
31
337
0
LINE
8
1
62
1
10
0
20
-149.5
30
337
11
0
21
-121.791
31
337
0
LINE
8
1
62
1
10
0
20
-121.791
30
337
11
-5.8
21
-121.791
31
337
0
LINE
8
1
62
1
10
-5.8
20
-121.791
30
337
11
-5.8
21
-94.082
31
337
0
LINE
8
1
62
1
10
-5.8
20
-94.082
30
337
11
0
21
-94.082
31
337
0
LINE
8
1
62
1
10
0
20
-94.082
30
337
11
0
21
-66.373
31
337
0
LINE
8
1
62
1
10
0
20
-66.373
30
337
11
-5.8
21
-66.373
31
337
0
LINE
8
1
62
1
10
-5.8
20
-66.373
30
337
11
-5.8
21
-38.664
31
337
0
LINE
8
1
62
1
10
-5.8
20
-38.664
30
337
11
0
21
-38.664
31
337
0
LINE
8
1
62
1
10
0
20
-38.664
30
337
11
0
21
-10.955
31
337
0
LINE
8
1
62
1
10
0
20
-10.955
30
337
11
-5.8
21
-10.955
31
337
0
LINE
8
1
62
1
10
-5.8
20
-10.955
30
337
11
-5.8
21
16.754
31
337
0
LINE
8
1
62
1
10
-5.8
20
16.754
30
337
11
0
21
16.755
31
337
0
LINE
8
1
62
1
10
0
20
16.755
30
337
11
0
21
44.464
31
337
0
LINE
8
1
62
1
10
0
20
44.464
30
337
11
-5.8
21
44.464
31
337
0
LINE
8
1
62
1
10
-5.8
20
44.464
30
337
11
-5.8
21
72.173
31
337
0
LINE
8
1
62
1
10
-5.8
20
72.173
30
337
11
0
21
72.173
31
337
0
LINE
8
1
62
1
10
0
20
72.173
30
337
11
0
21
99.882
31
337
0
LINE
8
1
62
1
10
0
20
99.882
30
337
11
-5.8
21
99.882
31
337
0
LINE
8
1
62
1
10
-5.8
20
99.882
30
337
11
-5.8
21
127.591
31
337
0
LINE
8
1
62
1
10
-5.8
20
127.591
30
337
11
0
21
127.591
31
337
0
LINE
8
1
62
1
10
0
20
127.591
30
337
11
0
21
155.3
31
337
0
ARC
8
1
62
1
10
0
20
-16.15
30
337
40
171.45
50
0.000008
51
90.000025
0
LINE
8
1
62
1
10
171.45
20
-16.15
30
337
11
171.45
21
-149.5
31
337
0
LINE
8
1
62
1
10
171.45
20
-149.5
30
337
11
146.957
21
-149.5
31
337
0
LINE
8
1
62
1
10
146.957
20
-149.5
30
337
11
146.957
21
-155.3
31
337
0
LINE
8
1
62
1
10
146.957
20
-155.3
30
337
11
122.464
21
-155.3
31
337
0
LINE
8
1
62
1
10
122.464
20
-155.3
30
337
11
122.464
21
-149.5
31
337
0
LINE
8
1
62
1
10
122.464
20
-149.5
30
337
11
97.971
21
-149.5
31
337
0
LINE
8
1
62
1
10
97.971
20
-149.5
30
337
11
97.971
21
-155.3
31
337
0
LINE
8
1
62
1
10
97.971
20
-155.3
30
337
11
73.479
21
-155.3
31
337
0
LINE
8
1
62
1
10
73.479
20
-155.3
30
337
11
73.479
21
-149.5
31
337
0
LINE
8
1
62
2
10
73.479
20
-149.5
30
337
11
73.478
21
-149.5
31
337
0
LINE
8
1
62
3
10
73.478
20
-149.5
30
337
11
73.478
21
-149.5
31
352
0
ENDSEC
0
EOF
