999
Generated by Autodesk CAM - http://cam.autodesk.com
0
SECTION
2
HEADER
9
$ACADVER
1
AC1006
9
$ANGBASE
50
0
9
$ANGDIR
70
0
0
ENDSEC
0
SECTION
2
BLOCKS
0
ENDSEC
9
$EXTMIN
10
-336
20
-155.3
30
0
9
$EXTMAX
10
336
20
155.3
30
15
0
SECTION
2
ENTITIES
0
LINE
8
1
62
3
10
107.167
20
99.883
30
15
11
107.167
21
99.883
31
15
0
LINE
8
1
62
3
10
107.167
20
99.883
30
15
11
107.167
21
99.883
31
0
0
LINE
8
1
62
2
10
107.167
20
99.883
30
0
11
107.167
21
99.882
31
0
0
LINE
8
1
62
1
10
107.167
20
99.882
30
0
11
107.167
21
99.882
31
0
0
LINE
8
1
62
1
10
107.167
20
99.882
30
0
11
112.967
21
99.882
31
0
0
LINE
8
1
62
1
10
112.967
20
99.882
30
0
11
112.967
21
127.591
31
0
0
LINE
8
1
62
1
10
112.967
20
127.591
30
0
11
107.167
21
127.591
31
0
0
LINE
8
1
62
1
10
107.167
20
127.591
30
0
11
107.167
21
99.882
31
0
0
LINE
8
1
62
2
10
107.167
20
99.882
30
0
11
107.167
21
99.882
31
0
0
LINE
8
1
62
3
10
107.167
20
99.882
30
0
11
107.167
21
99.882
31
5
0
LINE
8
1
62
3
10
107.167
20
99.882
30
5
11
107.167
21
44.464
31
5
0
LINE
8
1
62
3
10
107.167
20
44.464
30
5
11
107.167
21
44.464
31
0
0
LINE
8
1
62
2
10
107.167
20
44.464
30
0
11
107.167
21
44.464
31
0
0
LINE
8
1
62
1
10
107.167
20
44.464
30
0
11
107.167
21
44.464
31
0
0
LINE
8
1
62
1
10
107.167
20
44.464
30
0
11
112.967
21
44.464
31
0
0
LINE
8
1
62
1
10
112.967
20
44.464
30
0
11
112.967
21
72.173
31
0
0
LINE
8
1
62
1
10
112.967
20
72.173
30
0
11
107.167
21
72.173
31
0
0
LINE
8
1
62
1
10
107.167
20
72.173
30
0
11
107.167
21
44.464
31
0
0
LINE
8
1
62
2
10
107.167
20
44.464
30
0
11
107.167
21
44.464
31
0
0
LINE
8
1
62
3
10
107.167
20
44.464
30
0
11
107.167
21
44.464
31
5
0
LINE
8
1
62
3
10
107.167
20
44.464
30
5
11
107.167
21
-10.954
31
5
0
LINE
8
1
62
3
10
107.167
20
-10.954
30
5
11
107.167
21
-10.954
31
0
0
LINE
8
1
62
2
10
107.167
20
-10.954
30
0
11
107.167
21
-10.954
31
0
0
LINE
8
1
62
1
10
107.167
20
-10.954
30
0
11
107.167
21
-10.954
31
0
0
LINE
8
1
62
1
10
107.167
20
-10.954
30
0
11
112.967
21
-10.954
31
0
0
LINE
8
1
62
1
10
112.967
20
-10.954
30
0
11
112.967
21
16.754
31
0
0
LINE
8
1
62
1
10
112.967
20
16.754
30
0
11
107.167
21
16.754
31
0
0
LINE
8
1
62
1
10
107.167
20
16.754
30
0
11
107.167
21
-10.954
31
0
0
LINE
8
1
62
2
10
107.167
20
-10.954
30
0
11
107.167
21
-10.954
31
0
0
LINE
8
1
62
3
10
107.167
20
-10.954
30
0
11
107.167
21
-10.954
31
5
0
LINE
8
1
62
3
10
107.167
20
-10.954
30
5
11
107.167
21
-66.372
31
5
0
LINE
8
1
62
3
10
107.167
20
-66.372
30
5
11
107.167
21
-66.372
31
0
0
LINE
8
1
62
2
10
107.167
20
-66.372
30
0
11
107.167
21
-66.372
31
0
0
LINE
8
1
62
1
10
107.167
20
-66.372
30
0
11
107.167
21
-66.373
31
0
0
LINE
8
1
62
1
10
107.167
20
-66.373
30
0
11
112.967
21
-66.373
31
0
0
LINE
8
1
62
1
10
112.967
20
-66.373
30
0
11
112.967
21
-38.664
31
0
0
LINE
8
1
62
1
10
112.967
20
-38.664
30
0
11
107.167
21
-38.664
31
0
0
LINE
8
1
62
1
10
107.167
20
-38.664
30
0
11
107.167
21
-66.372
31
0
0
LINE
8
1
62
2
10
107.167
20
-66.372
30
0
11
107.167
21
-66.372
31
0
0
LINE
8
1
62
3
10
107.167
20
-66.372
30
0
11
107.167
21
-66.372
31
5
0
LINE
8
1
62
3
10
107.167
20
-66.372
30
5
11
107.168
21
-94.082
31
5
0
LINE
8
1
62
3
10
107.168
20
-94.082
30
5
11
107.168
21
-94.082
31
0
0
LINE
8
1
62
2
10
107.168
20
-94.082
30
0
11
107.168
21
-94.082
31
0
0
LINE
8
1
62
1
10
107.168
20
-94.082
30
0
11
107.167
21
-94.082
31
0
0
LINE
8
1
62
1
10
107.167
20
-94.082
30
0
11
107.167
21
-121.791
31
0
0
LINE
8
1
62
1
10
107.167
20
-121.791
30
0
11
112.967
21
-121.791
31
0
0
LINE
8
1
62
1
10
112.967
20
-121.791
30
0
11
112.967
21
-94.082
31
0
0
LINE
8
1
62
1
10
112.967
20
-94.082
30
0
11
107.168
21
-94.082
31
0
0
LINE
8
1
62
2
10
107.168
20
-94.082
30
0
11
107.167
21
-94.082
31
0
0
LINE
8
1
62
3
10
107.167
20
-94.082
30
0
11
107.167
21
-94.082
31
5
0
LINE
8
1
62
3
10
107.167
20
-94.082
30
5
11
-107.167
21
-94.083
31
5
0
LINE
8
1
62
3
10
-107.167
20
-94.083
30
5
11
-107.167
21
-94.083
31
0
0
LINE
8
1
62
2
10
-107.167
20
-94.083
30
0
11
-107.167
21
-94.082
31
0
0
LINE
8
1
62
1
10
-107.167
20
-94.082
30
0
11
-107.167
21
-94.082
31
0
0
LINE
8
1
62
1
10
-107.167
20
-94.082
30
0
11
-112.967
21
-94.082
31
0
0
LINE
8
1
62
1
10
-112.967
20
-94.082
30
0
11
-112.967
21
-121.791
31
0
0
LINE
8
1
62
1
10
-112.967
20
-121.791
30
0
11
-107.167
21
-121.791
31
0
0
LINE
8
1
62
1
10
-107.167
20
-121.791
30
0
11
-107.167
21
-94.082
31
0
0
LINE
8
1
62
2
10
-107.167
20
-94.082
30
0
11
-107.167
21
-94.082
31
0
0
LINE
8
1
62
3
10
-107.167
20
-94.082
30
0
11
-107.167
21
-94.082
31
5
0
LINE
8
1
62
3
10
-107.167
20
-94.082
30
5
11
-107.167
21
-38.664
31
5
0
LINE
8
1
62
3
10
-107.167
20
-38.664
30
5
11
-107.167
21
-38.664
31
0
0
LINE
8
1
62
2
10
-107.167
20
-38.664
30
0
11
-107.167
21
-38.664
31
0
0
LINE
8
1
62
1
10
-107.167
20
-38.664
30
0
11
-107.167
21
-38.664
31
0
0
LINE
8
1
62
1
10
-107.167
20
-38.664
30
0
11
-112.967
21
-38.664
31
0
0
LINE
8
1
62
1
10
-112.967
20
-38.664
30
0
11
-112.967
21
-66.373
31
0
0
LINE
8
1
62
1
10
-112.967
20
-66.373
30
0
11
-107.167
21
-66.373
31
0
0
LINE
8
1
62
1
10
-107.167
20
-66.373
30
0
11
-107.167
21
-38.664
31
0
0
LINE
8
1
62
2
10
-107.167
20
-38.664
30
0
11
-107.167
21
-38.664
31
0
0
LINE
8
1
62
3
10
-107.167
20
-38.664
30
0
11
-107.167
21
-38.664
31
5
0
LINE
8
1
62
3
10
-107.167
20
-38.664
30
5
11
-107.167
21
16.754
31
5
0
LINE
8
1
62
3
10
-107.167
20
16.754
30
5
11
-107.167
21
16.754
31
0
0
LINE
8
1
62
2
10
-107.167
20
16.754
30
0
11
-107.167
21
16.754
31
0
0
LINE
8
1
62
1
10
-107.167
20
16.754
30
0
11
-107.167
21
16.754
31
0
0
LINE
8
1
62
1
10
-107.167
20
16.754
30
0
11
-112.967
21
16.754
31
0
0
LINE
8
1
62
1
10
-112.967
20
16.754
30
0
11
-112.967
21
-10.954
31
0
0
LINE
8
1
62
1
10
-112.967
20
-10.954
30
0
11
-107.167
21
-10.954
31
0
0
LINE
8
1
62
1
10
-107.167
20
-10.954
30
0
11
-107.167
21
16.754
31
0
0
LINE
8
1
62
2
10
-107.167
20
16.754
30
0
11
-107.167
21
16.754
31
0
0
LINE
8
1
62
3
10
-107.167
20
16.754
30
0
11
-107.167
21
16.754
31
5
0
LINE
8
1
62
3
10
-107.167
20
16.754
30
5
11
-107.167
21
72.172
31
5
0
LINE
8
1
62
3
10
-107.167
20
72.172
30
5
11
-107.167
21
72.172
31
0
0
LINE
8
1
62
2
10
-107.167
20
72.172
30
0
11
-107.167
21
72.172
31
0
0
LINE
8
1
62
1
10
-107.167
20
72.172
30
0
11
-107.167
21
72.173
31
0
0
LINE
8
1
62
1
10
-107.167
20
72.173
30
0
11
-112.967
21
72.173
31
0
0
LINE
8
1
62
1
10
-112.967
20
72.173
30
0
11
-112.967
21
44.464
31
0
0
LINE
8
1
62
1
10
-112.967
20
44.464
30
0
11
-107.167
21
44.464
31
0
0
LINE
8
1
62
1
10
-107.167
20
44.464
30
0
11
-107.167
21
72.172
31
0
0
LINE
8
1
62
2
10
-107.167
20
72.172
30
0
11
-107.167
21
72.172
31
0
0
LINE
8
1
62
3
10
-107.167
20
72.172
30
0
11
-107.167
21
72.172
31
5
0
LINE
8
1
62
3
10
-107.167
20
72.172
30
5
11
-107.168
21
99.882
31
5
0
LINE
8
1
62
3
10
-107.168
20
99.882
30
5
11
-107.168
21
99.882
31
0
0
LINE
8
1
62
2
10
-107.168
20
99.882
30
0
11
-107.167
21
99.882
31
0
0
LINE
8
1
62
1
10
-107.167
20
99.882
30
0
11
-107.167
21
99.882
31
0
0
LINE
8
1
62
1
10
-107.167
20
99.882
30
0
11
-107.167
21
127.591
31
0
0
LINE
8
1
62
1
10
-107.167
20
127.591
30
0
11
-112.967
21
127.591
31
0
0
LINE
8
1
62
1
10
-112.967
20
127.591
30
0
11
-112.967
21
99.882
31
0
0
LINE
8
1
62
1
10
-112.967
20
99.882
30
0
11
-107.167
21
99.882
31
0
0
LINE
8
1
62
2
10
-107.167
20
99.882
30
0
11
-107.167
21
99.882
31
0
0
LINE
8
1
62
3
10
-107.167
20
99.882
30
0
11
-107.167
21
99.882
31
5
0
LINE
8
1
62
3
10
-107.167
20
99.882
30
5
11
-107.167
21
155.3
31
5
0
LINE
8
1
62
3
10
-107.167
20
155.3
30
5
11
-107.167
21
155.3
31
0
0
LINE
8
1
62
2
10
-107.167
20
155.3
30
0
11
-107.167
21
155.3
31
0
0
LINE
8
1
62
1
10
-107.167
20
155.3
30
0
11
330.2
21
155.3
31
0
0
LINE
8
1
62
1
10
330.2
20
155.3
30
0
11
330.2
21
127.591
31
0
0
LINE
8
1
62
1
10
330.2
20
127.591
30
0
11
336
21
127.591
31
0
0
LINE
8
1
62
1
10
336
20
127.591
30
0
11
336
21
99.882
31
0
0
LINE
8
1
62
1
10
336
20
99.882
30
0
11
330.2
21
99.882
31
0
0
LINE
8
1
62
1
10
330.2
20
99.882
30
0
11
330.2
21
72.173
31
0
0
LINE
8
1
62
1
10
330.2
20
72.173
30
0
11
336
21
72.173
31
0
0
LINE
8
1
62
1
10
336
20
72.173
30
0
11
336
21
44.464
31
0
0
LINE
8
1
62
1
10
336
20
44.464
30
0
11
330.2
21
44.464
31
0
0
LINE
8
1
62
1
10
330.2
20
44.464
30
0
11
330.2
21
16.755
31
0
0
LINE
8
1
62
1
10
330.2
20
16.755
30
0
11
336
21
16.755
31
0
0
LINE
8
1
62
1
10
336
20
16.755
30
0
11
336
21
-10.955
31
0
0
LINE
8
1
62
1
10
336
20
-10.955
30
0
11
330.2
21
-10.955
31
0
0
LINE
8
1
62
1
10
330.2
20
-10.955
30
0
11
330.2
21
-38.664
31
0
0
LINE
8
1
62
1
10
330.2
20
-38.664
30
0
11
336
21
-38.664
31
0
0
LINE
8
1
62
1
10
336
20
-38.664
30
0
11
336
21
-66.373
31
0
0
LINE
8
1
62
1
10
336
20
-66.373
30
0
11
330.2
21
-66.373
31
0
0
LINE
8
1
62
1
10
330.2
20
-66.373
30
0
11
330.2
21
-94.082
31
0
0
LINE
8
1
62
1
10
330.2
20
-94.082
30
0
11
336
21
-94.082
31
0
0
LINE
8
1
62
1
10
336
20
-94.082
30
0
11
336
21
-121.791
31
0
0
LINE
8
1
62
1
10
336
20
-121.791
30
0
11
330.2
21
-121.791
31
0
0
LINE
8
1
62
1
10
330.2
20
-121.791
30
0
11
330.2
21
-155.3
31
0
0
LINE
8
1
62
1
10
330.2
20
-155.3
30
0
11
301.487
21
-155.3
31
0
0
LINE
8
1
62
1
10
301.487
20
-155.3
30
0
11
301.487
21
-149.5
31
0
0
LINE
8
1
62
1
10
301.487
20
-149.5
30
0
11
272.774
21
-149.5
31
0
0
LINE
8
1
62
1
10
272.774
20
-149.5
30
0
11
272.774
21
-155.3
31
0
0
LINE
8
1
62
1
10
272.774
20
-155.3
30
0
11
244.061
21
-155.3
31
0
0
LINE
8
1
62
1
10
244.061
20
-155.3
30
0
11
244.061
21
-149.5
31
0
0
LINE
8
1
62
1
10
244.061
20
-149.5
30
0
11
215.348
21
-149.5
31
0
0
LINE
8
1
62
1
10
215.348
20
-149.5
30
0
11
215.348
21
-155.3
31
0
0
LINE
8
1
62
1
10
215.348
20
-155.3
30
0
11
186.635
21
-155.3
31
0
0
LINE
8
1
62
1
10
186.635
20
-155.3
30
0
11
186.635
21
-149.5
31
0
0
LINE
8
1
62
1
10
186.635
20
-149.5
30
0
11
157.922
21
-149.5
31
0
0
LINE
8
1
62
1
10
157.922
20
-149.5
30
0
11
157.922
21
-155.3
31
0
0
LINE
8
1
62
1
10
157.922
20
-155.3
30
0
11
129.209
21
-155.3
31
0
0
LINE
8
1
62
1
10
129.209
20
-155.3
30
0
11
129.209
21
-149.5
31
0
0
LINE
8
1
62
1
10
129.209
20
-149.5
30
0
11
100.496
21
-149.5
31
0
0
LINE
8
1
62
1
10
100.496
20
-149.5
30
0
11
100.496
21
-155.3
31
0
0
LINE
8
1
62
1
10
100.496
20
-155.3
30
0
11
71.783
21
-155.3
31
0
0
LINE
8
1
62
1
10
71.783
20
-155.3
30
0
11
71.783
21
-149.5
31
0
0
LINE
8
1
62
1
10
71.783
20
-149.5
30
0
11
43.07
21
-149.5
31
0
0
LINE
8
1
62
1
10
43.07
20
-149.5
30
0
11
43.07
21
-155.3
31
0
0
LINE
8
1
62
1
10
43.07
20
-155.3
30
0
11
14.356
21
-155.3
31
0
0
LINE
8
1
62
1
10
14.356
20
-155.3
30
0
11
14.356
21
-149.5
31
0
0
LINE
8
1
62
1
10
14.356
20
-149.5
30
0
11
-14.356
21
-149.5
31
0
0
LINE
8
1
62
1
10
-14.356
20
-149.5
30
0
11
-14.356
21
-155.3
31
0
0
LINE
8
1
62
1
10
-14.356
20
-155.3
30
0
11
-43.07
21
-155.3
31
0
0
LINE
8
1
62
1
10
-43.07
20
-155.3
30
0
11
-43.07
21
-149.5
31
0
0
LINE
8
1
62
1
10
-43.07
20
-149.5
30
0
11
-71.783
21
-149.5
31
0
0
LINE
8
1
62
1
10
-71.783
20
-149.5
30
0
11
-71.783
21
-155.3
31
0
0
LINE
8
1
62
1
10
-71.783
20
-155.3
30
0
11
-100.496
21
-155.3
31
0
0
LINE
8
1
62
1
10
-100.496
20
-155.3
30
0
11
-100.496
21
-149.5
31
0
0
LINE
8
1
62
1
10
-100.496
20
-149.5
30
0
11
-129.209
21
-149.5
31
0
0
LINE
8
1
62
1
10
-129.209
20
-149.5
30
0
11
-129.209
21
-155.3
31
0
0
LINE
8
1
62
1
10
-129.209
20
-155.3
30
0
11
-157.922
21
-155.3
31
0
0
LINE
8
1
62
1
10
-157.922
20
-155.3
30
0
11
-157.922
21
-149.5
31
0
0
LINE
8
1
62
1
10
-157.922
20
-149.5
30
0
11
-186.635
21
-149.5
31
0
0
LINE
8
1
62
1
10
-186.635
20
-149.5
30
0
11
-186.635
21
-155.3
31
0
0
LINE
8
1
62
1
10
-186.635
20
-155.3
30
0
11
-215.348
21
-155.3
31
0
0
LINE
8
1
62
1
10
-215.348
20
-155.3
30
0
11
-215.348
21
-149.5
31
0
0
LINE
8
1
62
1
10
-215.348
20
-149.5
30
0
11
-244.061
21
-149.5
31
0
0
LINE
8
1
62
1
10
-244.061
20
-149.5
30
0
11
-244.061
21
-155.3
31
0
0
LINE
8
1
62
1
10
-244.061
20
-155.3
30
0
11
-272.774
21
-155.3
31
0
0
LINE
8
1
62
1
10
-272.774
20
-155.3
30
0
11
-272.774
21
-149.5
31
0
0
LINE
8
1
62
1
10
-272.774
20
-149.5
30
0
11
-301.487
21
-149.5
31
0
0
LINE
8
1
62
1
10
-301.487
20
-149.5
30
0
11
-301.487
21
-155.3
31
0
0
LINE
8
1
62
1
10
-301.487
20
-155.3
30
0
11
-330.2
21
-155.3
31
0
0
LINE
8
1
62
1
10
-330.2
20
-155.3
30
0
11
-330.2
21
-121.791
31
0
0
LINE
8
1
62
1
10
-330.2
20
-121.791
30
0
11
-336
21
-121.791
31
0
0
LINE
8
1
62
1
10
-336
20
-121.791
30
0
11
-336
21
-94.082
31
0
0
LINE
8
1
62
1
10
-336
20
-94.082
30
0
11
-330.2
21
-94.082
31
0
0
LINE
8
1
62
1
10
-330.2
20
-94.082
30
0
11
-330.2
21
-66.373
31
0
0
LINE
8
1
62
1
10
-330.2
20
-66.373
30
0
11
-336
21
-66.373
31
0
0
LINE
8
1
62
1
10
-336
20
-66.373
30
0
11
-336
21
-38.664
31
0
0
LINE
8
1
62
1
10
-336
20
-38.664
30
0
11
-330.2
21
-38.664
31
0
0
LINE
8
1
62
1
10
-330.2
20
-38.664
30
0
11
-330.2
21
-10.955
31
0
0
LINE
8
1
62
1
10
-330.2
20
-10.955
30
0
11
-336
21
-10.955
31
0
0
LINE
8
1
62
1
10
-336
20
-10.955
30
0
11
-336
21
16.754
31
0
0
LINE
8
1
62
1
10
-336
20
16.754
30
0
11
-330.2
21
16.755
31
0
0
LINE
8
1
62
1
10
-330.2
20
16.755
30
0
11
-330.2
21
44.464
31
0
0
LINE
8
1
62
1
10
-330.2
20
44.464
30
0
11
-336
21
44.464
31
0
0
LINE
8
1
62
1
10
-336
20
44.464
30
0
11
-336
21
72.173
31
0
0
LINE
8
1
62
1
10
-336
20
72.173
30
0
11
-330.2
21
72.173
31
0
0
LINE
8
1
62
1
10
-330.2
20
72.173
30
0
11
-330.2
21
99.882
31
0
0
LINE
8
1
62
1
10
-330.2
20
99.882
30
0
11
-336
21
99.882
31
0
0
LINE
8
1
62
1
10
-336
20
99.882
30
0
11
-336
21
127.591
31
0
0
LINE
8
1
62
1
10
-336
20
127.591
30
0
11
-330.2
21
127.591
31
0
0
LINE
8
1
62
1
10
-330.2
20
127.591
30
0
11
-330.2
21
155.3
31
0
0
LINE
8
1
62
1
10
-330.2
20
155.3
30
0
11
-107.167
21
155.3
31
0
0
LINE
8
1
62
2
10
-107.167
20
155.3
30
0
11
-107.167
21
155.3
31
0
0
LINE
8
1
62
3
10
-107.167
20
155.3
30
0
11
-107.167
21
155.3
31
15
0
ENDSEC
0
EOF
