999
Generated by Autodesk CAM - http://cam.autodesk.com
0
SECTION
2
HEADER
9
$ACADVER
1
AC1006
9
$ANGBASE
50
0
9
$ANGDIR
70
0
0
ENDSEC
0
SECTION
2
BLOCKS
0
ENDSEC
9
$EXTMIN
10
-5.8
20
-155.3
30
0
9
$EXTMAX
10
450.3
20
155.3
30
352
0
SECTION
2
ENTITIES
0
LINE
8
1
62
3
10
444.501
20
72.172
30
352
11
444.501
21
72.172
31
352
0
LINE
8
1
62
3
10
444.501
20
72.172
30
352
11
444.501
21
72.172
31
337
0
LINE
8
1
62
2
10
444.501
20
72.172
30
337
11
444.5
21
72.173
31
337
0
LINE
8
1
62
1
10
444.5
20
72.173
30
337
11
444.5
21
72.173
31
337
0
LINE
8
1
62
1
10
444.5
20
72.173
30
337
11
444.5
21
44.464
31
337
0
LINE
8
1
62
1
10
444.5
20
44.464
30
337
11
450.3
21
44.464
31
337
0
LINE
8
1
62
1
10
450.3
20
44.464
30
337
11
450.3
21
16.754
31
337
0
LINE
8
1
62
1
10
450.3
20
16.754
30
337
11
444.5
21
16.754
31
337
0
LINE
8
1
62
1
10
444.5
20
16.754
30
337
11
444.5
21
-10.954
31
337
0
LINE
8
1
62
1
10
444.5
20
-10.954
30
337
11
450.3
21
-10.954
31
337
0
LINE
8
1
62
1
10
450.3
20
-10.954
30
337
11
450.3
21
-38.664
31
337
0
LINE
8
1
62
1
10
450.3
20
-38.664
30
337
11
444.5
21
-38.664
31
337
0
LINE
8
1
62
1
10
444.5
20
-38.664
30
337
11
444.5
21
-66.373
31
337
0
LINE
8
1
62
1
10
444.5
20
-66.373
30
337
11
450.3
21
-66.373
31
337
0
LINE
8
1
62
1
10
450.3
20
-66.373
30
337
11
450.3
21
-94.082
31
337
0
LINE
8
1
62
1
10
450.3
20
-94.082
30
337
11
444.5
21
-94.082
31
337
0
LINE
8
1
62
1
10
444.5
20
-94.082
30
337
11
444.5
21
-121.791
31
337
0
LINE
8
1
62
1
10
444.5
20
-121.791
30
337
11
450.3
21
-121.791
31
337
0
LINE
8
1
62
1
10
450.3
20
-121.791
30
337
11
450.3
21
-155.3
31
337
0
LINE
8
1
62
1
10
450.3
20
-155.3
30
337
11
414.867
21
-155.3
31
337
0
LINE
8
1
62
1
10
414.867
20
-155.3
30
337
11
414.867
21
-149.5
31
337
0
LINE
8
1
62
1
10
414.867
20
-149.5
30
337
11
385.233
21
-149.5
31
337
0
LINE
8
1
62
1
10
385.233
20
-149.5
30
337
11
385.233
21
-155.3
31
337
0
LINE
8
1
62
1
10
385.233
20
-155.3
30
337
11
355.6
21
-155.3
31
337
0
LINE
8
1
62
1
10
355.6
20
-155.3
30
337
11
355.6
21
-149.5
31
337
0
LINE
8
1
62
1
10
355.6
20
-149.5
30
337
11
325.967
21
-149.5
31
337
0
LINE
8
1
62
1
10
325.967
20
-149.5
30
337
11
325.967
21
-155.3
31
337
0
LINE
8
1
62
1
10
325.967
20
-155.3
30
337
11
296.333
21
-155.3
31
337
0
LINE
8
1
62
1
10
296.333
20
-155.3
30
337
11
296.333
21
-149.5
31
337
0
LINE
8
1
62
1
10
296.333
20
-149.5
30
337
11
266.7
21
-149.5
31
337
0
LINE
8
1
62
1
10
266.7
20
-149.5
30
337
11
266.7
21
-155.3
31
337
0
LINE
8
1
62
1
10
266.7
20
-155.3
30
337
11
237.067
21
-155.3
31
337
0
LINE
8
1
62
1
10
237.067
20
-155.3
30
337
11
237.067
21
-149.5
31
337
0
LINE
8
1
62
1
10
237.067
20
-149.5
30
337
11
207.433
21
-149.5
31
337
0
LINE
8
1
62
1
10
207.433
20
-149.5
30
337
11
207.433
21
-155.3
31
337
0
LINE
8
1
62
1
10
207.433
20
-155.3
30
337
11
177.8
21
-155.3
31
337
0
LINE
8
1
62
1
10
177.8
20
-155.3
30
337
11
177.8
21
-149.5
31
337
0
LINE
8
1
62
1
10
177.8
20
-149.5
30
337
11
148.167
21
-149.5
31
337
0
LINE
8
1
62
1
10
148.167
20
-149.5
30
337
11
148.167
21
-155.3
31
337
0
LINE
8
1
62
1
10
148.167
20
-155.3
30
337
11
118.533
21
-155.3
31
337
0
LINE
8
1
62
1
10
118.533
20
-155.3
30
337
11
118.533
21
-149.5
31
337
0
LINE
8
1
62
1
10
118.533
20
-149.5
30
337
11
88.9
21
-149.5
31
337
0
LINE
8
1
62
1
10
88.9
20
-149.5
30
337
11
88.9
21
-155.3
31
337
0
LINE
8
1
62
1
10
88.9
20
-155.3
30
337
11
59.267
21
-155.3
31
337
0
LINE
8
1
62
1
10
59.267
20
-155.3
30
337
11
59.267
21
-149.5
31
337
0
LINE
8
1
62
1
10
59.267
20
-149.5
30
337
11
29.633
21
-149.5
31
337
0
LINE
8
1
62
1
10
29.633
20
-149.5
30
337
11
29.633
21
-155.3
31
337
0
LINE
8
1
62
1
10
29.633
20
-155.3
30
337
11
-5.8
21
-155.3
31
337
0
LINE
8
1
62
1
10
-5.8
20
-155.3
30
337
11
-5.8
21
-121.791
31
337
0
LINE
8
1
62
1
10
-5.8
20
-121.791
30
337
11
0
21
-121.791
31
337
0
LINE
8
1
62
1
10
0
20
-121.791
30
337
11
0
21
-94.082
31
337
0
LINE
8
1
62
1
10
0
20
-94.082
30
337
11
-5.8
21
-94.082
31
337
0
LINE
8
1
62
1
10
-5.8
20
-94.082
30
337
11
-5.8
21
-66.373
31
337
0
LINE
8
1
62
1
10
-5.8
20
-66.373
30
337
11
0
21
-66.373
31
337
0
LINE
8
1
62
1
10
0
20
-66.373
30
337
11
0
21
-38.664
31
337
0
LINE
8
1
62
1
10
0
20
-38.664
30
337
11
-5.8
21
-38.664
31
337
0
LINE
8
1
62
1
10
-5.8
20
-38.664
30
337
11
-5.8
21
-10.955
31
337
0
LINE
8
1
62
1
10
-5.8
20
-10.955
30
337
11
0
21
-10.954
31
337
0
LINE
8
1
62
1
10
0
20
-10.954
30
337
11
0
21
16.754
31
337
0
LINE
8
1
62
1
10
0
20
16.754
30
337
11
-5.8
21
16.754
31
337
0
LINE
8
1
62
1
10
-5.8
20
16.754
30
337
11
-5.8
21
44.464
31
337
0
LINE
8
1
62
1
10
-5.8
20
44.464
30
337
11
0
21
44.464
31
337
0
LINE
8
1
62
1
10
0
20
44.464
30
337
11
0
21
72.173
31
337
0
LINE
8
1
62
1
10
0
20
72.173
30
337
11
-5.8
21
72.173
31
337
0
LINE
8
1
62
1
10
-5.8
20
72.173
30
337
11
-5.8
21
99.882
31
337
0
LINE
8
1
62
1
10
-5.8
20
99.882
30
337
11
0
21
99.882
31
337
0
LINE
8
1
62
1
10
0
20
99.882
30
337
11
0
21
127.591
31
337
0
LINE
8
1
62
1
10
0
20
127.591
30
337
11
-5.8
21
127.591
31
337
0
LINE
8
1
62
1
10
-5.8
20
127.591
30
337
11
-5.8
21
155.3
31
337
0
LINE
8
1
62
1
10
-5.8
20
155.3
30
337
11
450.3
21
155.3
31
337
0
LINE
8
1
62
1
10
450.3
20
155.3
30
337
11
450.3
21
127.591
31
337
0
LINE
8
1
62
1
10
450.3
20
127.591
30
337
11
444.5
21
127.591
31
337
0
LINE
8
1
62
1
10
444.5
20
127.591
30
337
11
444.5
21
99.882
31
337
0
LINE
8
1
62
1
10
444.5
20
99.882
30
337
11
450.3
21
99.882
31
337
0
LINE
8
1
62
1
10
450.3
20
99.882
30
337
11
450.3
21
72.173
31
337
0
LINE
8
1
62
1
10
450.3
20
72.173
30
337
11
444.5
21
72.173
31
337
0
LINE
8
1
62
2
10
444.5
20
72.173
30
337
11
444.5
21
72.172
31
337
0
LINE
8
1
62
3
10
444.5
20
72.172
30
337
11
444.5
21
72.172
31
352
0
ENDSEC
0
EOF
